<svg id="Layer_1" data-name="Layer 1" xmlns="http://www.w3.org/2000/svg" viewBox="0 0 512 512"><defs><style>.cls-1{fill:#00b0ff;}.cls-2{fill:#2962ff;}.cls-3{fill:#448aff;}.cls-4{fill:#e8eaf6;}.cls-5{fill:#1a3b7e;}.cls-6{fill:#0d57a1;}</style></defs><title>Agriculture</title><g id="Layer_1-2" data-name="Layer 1-2"><circle class="cls-1" cx="256" cy="256" r="256"/><path class="cls-2" d="M372.37,222.49C339.19,260.78,297.55,278.9,279.2,263c-.07-.07-.22-.15-.29-.29-17.83-16-5.77-59.7,27.18-97.69,32.45-37.41,90.61-40.41,93.1-40.56h.07S405.55,184.2,372.37,222.49Z"/><path class="cls-3" d="M399.19,124.5,278.91,262.74c-17.83-16-5.77-59.69,27.18-97.69C338.53,127.64,396.7,124.64,399.19,124.5Z"/><path class="cls-2" d="M169.43,290.79c29.24,15,58.68,15.75,65.86,1.76a.77.77,0,0,0,.1-.25c6.83-13.95-11-37.29-40.07-52.13-28.59-14.62-64.29-2.29-65.82-1.78h0S140.18,275.82,169.43,290.79Z"/><path class="cls-3" d="M129.51,238.39,235.39,292.3c6.84-13.95-11-37.29-40.06-52.13C166.74,225.55,131,237.87,129.51,238.39Z"/><path class="cls-4" d="M256.12,350.74a88.11,88.11,0,0,1,17.82,1.81c-2.67-54.85-11.47-225.22-17.82-225.22S241,297.7,238.3,352.55A88.11,88.11,0,0,1,256.12,350.74Z"/><path class="cls-5" d="M356.52,387a41.9,41.9,0,0,0-40.87-32.8c-12.51,0-16.43,4.49-22.32,5.18h0c-8.44-5.94-22.27-9.83-37.94-9.83s-29.5,3.89-37.94,9.83h0c-7-.83-10.15-5.18-22.74-5.18A41.88,41.88,0,0,0,153.84,387c-14,1.19-25.31,8.65-28.08,18.37H385C382.22,395.61,370.73,388.11,356.52,387Z"/><path class="cls-6" d="M255.34,349.58c-15.67,0-29.5,3.89-37.93,9.83h0c-7-.83-10.14-5.18-22.73-5.18a41.89,41.89,0,0,0-40.88,32.83c-14,1.19-25.31,8.65-28.08,18.37h76.21l55.78-55.78C256.89,349.64,256.13,349.58,255.34,349.58Z"/></g></svg>