<svg id="Layer_1" data-name="Layer 1" xmlns="http://www.w3.org/2000/svg" viewBox="0 0 512 512"><defs><style>.cls-1{fill:#00b0ff;}.cls-2{fill:#c5cae9;}.cls-3{fill:#fff;}.cls-4{fill:#e8eaf6;}.cls-5{fill:#0d57a1;}.cls-6{fill:#1565c0;}</style></defs><title>Energy</title><g id="Layer_1-2" data-name="Layer 1-2"><circle class="cls-1" cx="256" cy="256" r="256"/><path class="cls-2" d="M268.32,232.63a18.36,18.36,0,0,1-24.64,0l-24.92,153.7h74.48Z"/><path class="cls-3" d="M256,237.38a18.45,18.45,0,0,1-12.32-4.75l-24.92,153.7H256Z"/><path class="cls-3" d="M274.61,218.76c9.71-37.4-.25-93.21-16.67-108.32a6.17,6.17,0,0,0-6-1.77,5.64,5.64,0,0,0-4,4.84l-10.2,105.25Z"/><path class="cls-3" d="M247,235.06c28.07,26.56,81.77,44.77,102.93,37.67a6.18,6.18,0,0,0,4.45-4.39,5.68,5.68,0,0,0-2.34-5.8l-87.25-59.76Z"/><path class="cls-3" d="M246.05,203c-36.8,11.77-78.65,50-82.65,72a6.17,6.17,0,0,0,1.71,6,5.65,5.65,0,0,0,6.2.75l94.45-47.59Z"/><path class="cls-3" d="M330.47,405H181.53a18.61,18.61,0,0,1,18.6-18.62H311.85A18.61,18.61,0,0,1,330.47,405Z"/><path class="cls-4" d="M210.38,171.46a19.35,19.35,0,0,1-19.32,19.38H126.43a19.36,19.36,0,0,1-19.38-19.34v0c0-13.23,12.92-19.3,20-19.3a32.29,32.29,0,0,1,63.3,0C197.47,152.15,210.38,158.24,210.38,171.46Z"/><path class="cls-4" d="M405,199.39a19.35,19.35,0,0,1-19.33,19.37H321a19.35,19.35,0,0,1-19.38-19.32v-.05c0-13.24,12.92-19.31,20-19.31a32.28,32.28,0,0,1,63.29,0C392,180.08,405,186.16,405,199.39Z"/><path class="cls-3" d="M158.72,126.25a32.3,32.3,0,0,0-31.65,25.9c-7.09,0-20,6.08-20,19.31a19.32,19.32,0,0,0,18.79,19.31l55.31-55.3A32.13,32.13,0,0,0,158.72,126.25Z"/><path class="cls-3" d="M353.28,154.24a32.28,32.28,0,0,0-31.65,25.9c-7.1,0-20,6.08-20,19.3a19.31,19.31,0,0,0,18.79,19.32l55.3-55.3A32,32,0,0,0,353.28,154.24Z"/><circle class="cls-5" cx="256" cy="218.76" r="18.62"/><path class="cls-6" d="M256,200.15A18.6,18.6,0,0,0,242.9,232l26.32-26.31A18.57,18.57,0,0,0,256,200.15Z"/></g></svg>