<svg id="Layer_1" data-name="Layer 1" xmlns="http://www.w3.org/2000/svg" viewBox="0 0 512 512"><defs><style>.cls-1{fill:#00b0ff;}.cls-2{fill:#2962ff;}.cls-3{fill:#1a3b7e;}.cls-4{fill:#2979ff;}.cls-5{fill:#c5cae9;}.cls-6{fill:#fff;}.cls-7{fill:#1565c0;}.cls-8{fill:#e8eaf6;}.cls-9{fill:#0d57a1;}</style></defs><title>Infrastructure</title><g id="Layer_1-2" data-name="Layer 1-2"><circle class="cls-1" cx="256" cy="256" r="256"/><path class="cls-2" d="M302.43,134.93a9.31,9.31,0,0,0-9.32-9.3h0l-74.47.08a9.31,9.31,0,0,0-9.3,9.32h0l.08,74.47,93.09-.1Z"/><rect class="cls-3" x="302.48" y="176.82" width="13.96" height="9.31"/><path class="cls-4" d="M218.64,125.71a9.31,9.31,0,0,0-9.3,9.32h0l.08,74.48h1.73l83.53-83.71a9.19,9.19,0,0,0-1.57-.16Z"/><path class="cls-5" d="M311.83,218.7a9.32,9.32,0,0,0-9.32-9.3l-93.09.1a9.31,9.31,0,0,0-9.3,9.32h0l.07,65.16,111.71-.12Z"/><path class="cls-6" d="M386.3,297.87a14,14,0,0,0-13.93-14.07h-.07l-116.3.13-116.28.12a14,14,0,0,0-14,14.05v.06c.29,30,.53,57.57-10.54,88.22a14,14,0,0,0,13.16,18.71L256.17,405l127.75-.14A14,14,0,0,0,397,386.08C385.9,355.44,386.08,327.92,386.3,297.87Z"/><path class="cls-7" d="M335.05,172.13a4.66,4.66,0,0,0-4.66-4.65h-9.31a4.66,4.66,0,0,0-4.65,4.66v27.93a4.66,4.66,0,0,0,4.66,4.65h9.31a4.65,4.65,0,0,0,4.65-4.65h0Z"/><rect class="cls-3" x="195.42" y="176.92" width="13.96" height="9.31"/><path class="cls-7" d="M176.79,172.31a4.65,4.65,0,0,1,4.64-4.66h9.32a4.66,4.66,0,0,1,4.66,4.65v27.93a4.65,4.65,0,0,1-4.65,4.65h-9.3a4.65,4.65,0,0,1-4.66-4.64h0Z"/><path class="cls-8" d="M115.27,386.38a14,14,0,0,0,13.15,18.7l255.5-.27A14,14,0,0,0,397,386.07a165.21,165.21,0,0,1-7.43-27.82l-267,.29A165.3,165.3,0,0,1,115.27,386.38Z"/><path class="cls-3" d="M358.4,246.59a9.33,9.33,0,0,0-9.32-9.31H321.15a9.33,9.33,0,0,0-9.3,9.32v37.24l46.54,0Z"/><path class="cls-9" d="M335.15,265.77l23.26-11.66v-7.52a9.26,9.26,0,0,0-.43-2.67l-22.83,11.45L312.29,244a8.93,8.93,0,0,0-.44,2.66v7.54Z"/><polygon class="cls-9" points="311.88 266.47 311.89 276.88 325.86 283.85 344.48 283.83 358.44 276.84 358.42 266.43 335.17 278.09 311.88 266.47"/><path class="cls-3" d="M200.15,246.75a9.32,9.32,0,0,0-9.32-9.3H162.9a9.31,9.31,0,0,0-9.3,9.32h0V284h46.55Z"/><path class="cls-9" d="M176.9,266l23.25-11.66V246.8a8.93,8.93,0,0,0-.44-2.66l-22.83,11.44L154,244.14a9.25,9.25,0,0,0-.43,2.66v7.53Z"/><polygon class="cls-9" points="153.62 266.65 153.64 277.06 167.61 284.02 186.22 284 200.18 277.01 200.17 266.6 176.91 278.26 153.62 266.65"/><path class="cls-1" d="M293.26,269.93a4.66,4.66,0,0,1-4.65,4.66l-65.16.07a4.66,4.66,0,0,1-.43-9.31,3.09,3.09,0,0,1,.43,0l65.17-.07A4.66,4.66,0,0,1,293.26,269.93Z"/><path class="cls-1" d="M293.25,251.31a4.66,4.66,0,0,1-4.63,4.69h0l-65.17.07a4.66,4.66,0,1,1-.43-9.31h.43l65.16-.07A4.66,4.66,0,0,1,293.25,251.31Z"/><path class="cls-1" d="M293.22,232.69a4.65,4.65,0,0,1-4.64,4.66h0l-65.16.07a4.66,4.66,0,1,1-.43-9.31,3.09,3.09,0,0,1,.43,0l65.16-.07A4.65,4.65,0,0,1,293.22,232.69Z"/><rect class="cls-5" x="223.33" y="144.29" width="65.16" height="51.2" transform="translate(-0.18 0.27) rotate(-0.06)"/><polygon class="cls-8" points="223.36 194.82 273.81 144.27 223.31 144.33 223.36 194.82"/></g></svg>