<svg id="Layer_1" data-name="Layer 1" xmlns="http://www.w3.org/2000/svg" viewBox="0 0 512 512"><defs><style>.cls-1{fill:#00b0ff;}.cls-2{fill:#fff;}.cls-3{fill:#2979ff;}.cls-4{fill:#2962ff;}</style></defs><title>Manufacture</title><g id="Layer_1-2" data-name="Layer 1-2"><circle class="cls-1" cx="256" cy="256" r="256"/><polygon class="cls-2" points="181.53 293.24 162.91 162.91 125.67 162.91 107.06 293.24 107.06 404.94 404.94 404.94 404.94 293.24 181.53 293.24"/><polygon class="cls-3" points="120.35 200.15 168.23 200.15 165.57 181.53 123.02 181.53 120.35 200.15"/><polygon class="cls-3" points="115.04 237.38 173.54 237.38 170.89 218.76 117.69 218.76 115.04 237.38"/><polygon class="cls-3" points="109.71 274.62 178.87 274.62 176.21 256 112.38 256 109.71 274.62"/><rect class="cls-1" x="144.29" y="330.47" width="93.09" height="37.24"/><rect class="cls-1" x="274.62" y="330.47" width="93.09" height="37.24"/><path class="cls-4" d="M382.87,109.3c-17.53,45.32-77,32-116.32,51.08-102.31,49.75,12.58,179.3,95.55,74.26,49-62.1,20.77-125.34,20.77-125.34"/><path class="cls-3" d="M382.87,109.3c-17.53,45.32-77,32-116.32,51.08-50.9,24.75-48,69.24-22.1,94.78l145.32-83.9C394.68,135.77,382.87,109.3,382.87,109.3Z"/><path class="cls-2" d="M373.15,147.67c-.12,0-41.56,109.29-165.24,102.14a4.66,4.66,0,0,0-4.27,7,76.79,76.79,0,0,0,5.2,7.69,4.64,4.64,0,0,0,3.84,1.82C268.5,264.57,337.34,241.14,373.15,147.67Z"/></g></svg>