<svg id="Layer_1" data-name="Layer 1" xmlns="http://www.w3.org/2000/svg" viewBox="0 0 512 512"><defs><style>.cls-1{fill:#00b0ff;}.cls-2{fill:#fff;}.cls-3{fill:#e8eaf6;}.cls-4{fill:#0d57a1;}.cls-5{fill:#2962ff;}.cls-6{fill:#1e88e5;}.cls-7{fill:#2979ff;}</style></defs><title>Property</title><g id="Layer_1-2" data-name="Layer 1-2"><path class="cls-1" d="M512,256c0,141.38-114.62,256-256,256S0,397.38,0,256,114.61,0,256,0,512,114.61,512,256Z"/><rect class="cls-2" x="200.15" y="144.29" width="93.09" height="37.24"/><rect class="cls-3" x="181.53" y="181.53" width="130.33" height="223.42"/><rect class="cls-2" x="125.67" y="237.38" width="93.09" height="167.56"/><rect class="cls-4" x="153.6" y="377.01" width="37.24" height="27.93"/><path class="cls-5" d="M209.45,144.29l37.24-37.23,37.23,37.23Z"/><rect class="cls-6" x="214.11" y="153.6" width="9.31" height="18.62"/><rect class="cls-6" x="232.72" y="153.6" width="9.31" height="18.62"/><rect class="cls-6" x="251.34" y="153.6" width="9.31" height="18.62"/><rect class="cls-6" x="269.96" y="153.6" width="9.31" height="18.62"/><path class="cls-2" d="M395.62,297.89a9.18,9.18,0,0,1-4.55-1.2l-69.91-39.32-69.91,39.32a9,9,0,0,1-4.56,1.15v107.1H395.63v-107Z"/><path class="cls-4" d="M339.78,386.33a18.62,18.62,0,0,0-37.24,0v18.64h37.24Z"/><rect class="cls-1" x="200.15" y="200.15" width="9.31" height="18.62"/><rect class="cls-1" x="228.07" y="200.15" width="9.31" height="18.62"/><rect class="cls-1" x="228.07" y="237.38" width="9.31" height="18.62"/><rect class="cls-1" x="256" y="200.15" width="9.31" height="18.62"/><rect class="cls-1" x="256" y="237.38" width="9.31" height="18.62"/><rect class="cls-1" x="283.92" y="200.15" width="9.31" height="18.62"/><rect class="cls-1" x="283.92" y="237.38" width="9.31" height="18.62"/><rect class="cls-1" x="181.53" y="339.78" width="18.62" height="18.62"/><rect class="cls-1" x="144.29" y="339.78" width="18.62" height="18.62"/><rect class="cls-1" x="181.53" y="302.54" width="18.62" height="18.62"/><rect class="cls-1" x="144.29" y="302.54" width="18.62" height="18.62"/><rect class="cls-1" x="181.53" y="265.31" width="18.62" height="18.62"/><rect class="cls-1" x="144.29" y="265.31" width="18.62" height="18.62"/><rect class="cls-1" x="274.62" y="297.89" width="18.62" height="18.62"/><rect class="cls-1" x="274.62" y="335.13" width="18.62" height="18.62"/><rect class="cls-1" x="311.85" y="297.89" width="18.62" height="18.62"/><rect class="cls-1" x="311.85" y="335.13" width="18.62" height="18.62"/><rect class="cls-1" x="349.09" y="297.89" width="18.62" height="18.62"/><rect class="cls-1" x="349.09" y="335.13" width="18.62" height="18.62"/><path class="cls-7" d="M246.69,107.06l-37.24,37.23h37.24Z"/><path class="cls-5" d="M395.62,297.89a9.18,9.18,0,0,1-4.55-1.2l-69.91-39.32-69.91,39.32a9.31,9.31,0,1,1-9.13-16.23h0l79-44.45,79,44.46a9.3,9.3,0,0,1-4.57,17.42Z"/></g></svg>