<svg id="Layer_1" data-name="Layer 1" xmlns="http://www.w3.org/2000/svg" viewBox="0 0 512 512"><defs><style>.cls-1{fill:#00b0ff;}.cls-2{fill:#0d57a1;}.cls-3{fill:#2962ff;}.cls-4{fill:#2979ff;}.cls-5{fill:#1a3b7e;}.cls-6{fill:#e8eaf6;}.cls-7{fill:#fff;}.cls-8{fill:#448aff;}.cls-9{fill:#1565c0;}.cls-10{fill:#c5cae9;}</style></defs><title>Tourism</title><g id="Layer_1-2" data-name="Layer 1-2"><path class="cls-1" d="M512,256c0,141.38-114.62,256-256,256S0,397.38,0,256,114.61,0,256,0,512,114.61,512,256Z"/><path class="cls-2" d="M212,242a40.7,40.7,0,0,1,81.1,0h14a54.62,54.62,0,0,0-109,0Z"/><path class="cls-3" d="M125.67,386.33H386.33c25.35-53.39,24.29-101.26,0-144.29H125.67C101.38,285,100.31,332.94,125.67,386.33Z"/><path class="cls-4" d="M125.63,242c-21.66,38.37-24.79,80.62-7.23,127.18L245.58,242Z"/><path class="cls-5" d="M395.05,181.53H383.42l-7-14h-18.6l-7,14H320.58a9.31,9.31,0,0,0-9.31,9.3v41.89a9.31,9.31,0,0,0,9.3,9.32h74.48a9.31,9.31,0,0,0,9.31-9.31h0V190.83A9.31,9.31,0,0,0,395.05,181.53Z"/><path class="cls-6" d="M294.55,155.47,189.9,194.56s1-9,3.18-21.06c1.19-6.65,2.79-14.21,4.78-21.65,4.73-17.38,11.72-34.2,21.58-37.88s26.15,4.45,41.11,14.46c6.39,4.32,12.55,9,17.81,13.22C287.92,149.3,294.55,155.47,294.55,155.47Z"/><path class="cls-4" d="M278.36,141.65,193.07,173.5c1.19-6.66,2.79-14.21,4.78-21.66l62.7-23.41c6.39,4.32,12.55,9,17.81,13.22Z"/><path class="cls-7" d="M386.32,209.45A23.28,23.28,0,1,1,363,186.18h0A23.27,23.27,0,0,1,386.32,209.45Z"/><path class="cls-8" d="M377,209.45A14,14,0,1,1,363,195.5h.1A14,14,0,0,1,377,209.45Z"/><path class="cls-5" d="M209.45,307.2a311.64,311.64,0,0,1,6.9-65.16h-19a330.74,330.74,0,0,0,3.41,145.41,4.63,4.63,0,0,0,4.52,3.53H215a4.67,4.67,0,0,0,4.65-4.67,4.43,4.43,0,0,0-.15-1.15,310.1,310.1,0,0,1-10-78Z"/><path class="cls-5" d="M297.89,307.2A311.94,311.94,0,0,0,291,242h19a330.79,330.79,0,0,1,6.48,65.16,329.42,329.42,0,0,1-9.9,80.25,4.64,4.64,0,0,1-4.5,3.53H292.4a4.65,4.65,0,0,1-4.65-4.65,4.58,4.58,0,0,1,.15-1.17,311,311,0,0,0,10-78Z"/><rect class="cls-6" x="330.47" y="176.87" width="13.96" height="4.65"/><path class="cls-6" d="M377.4,124.54a32.52,32.52,0,0,1-19,41.88l-.11,0L149,244.62a32.52,32.52,0,0,1-41.87-19l0-.1Z"/><path class="cls-9" d="M197.32,242a330.72,330.72,0,0,0-6.22,54.51L211,276.63A311.42,311.42,0,0,1,216.35,242Z"/><path class="cls-10" d="M377.4,124.54a32.23,32.23,0,0,1,2,9.19l-267.83,100a32.39,32.39,0,0,1-4.51-8.24Z"/><path class="cls-7" d="M256.72,292.06l-31.54,19.79-29.69-47.3,5.88-25.67L227,244.75Z"/></g></svg>