<svg id="Layer_1" data-name="Layer 1" xmlns="http://www.w3.org/2000/svg" viewBox="0 0 512 512"><defs><style>.cls-1{fill:#00b0ff;}.cls-2{fill:#c5cae9;}.cls-3{fill:#2962ff;}.cls-4{fill:#2979ff;}.cls-5{fill:#e8eaf6;}.cls-6{fill:#fff;}</style></defs><title>Potential</title><g id="Layer_1-2" data-name="Layer 1-2"><circle class="cls-1" cx="256" cy="256" r="256"/><path class="cls-2" d="M330.47,232.4a9.32,9.32,0,0,1-4.14,7.75l-51.71,53.09H237.38l-51.71-53.09a9.32,9.32,0,0,1-4.14-7.75V125.67a18.62,18.62,0,0,1,18.62-18.62h111.7a18.62,18.62,0,0,1,18.62,18.62Z"/><polygon class="cls-3" points="293.24 107.06 218.76 107.06 218.76 274.13 237.38 293.24 274.62 293.24 293.24 274.13 293.24 107.06"/><polygon class="cls-4" points="256 107.06 218.76 107.06 218.76 274.13 237.38 293.24 256 293.24 256 107.06"/><path class="cls-5" d="M251.83,232.8a4.64,4.64,0,0,1,8.34,0l24.71,50.07a4.7,4.7,0,0,0,3.51,2.55l55.26,8a4.66,4.66,0,0,1,2.57,7.94l-40,39a4.65,4.65,0,0,0-1.34,4.12l9.44,55a4.65,4.65,0,0,1-6.76,4.9l-49.42-26a4.71,4.71,0,0,0-4.32,0l-49.43,26a4.65,4.65,0,0,1-6.75-4.9l9.44-55a4.65,4.65,0,0,0-1.34-4.12l-40-39a4.66,4.66,0,0,1,2.57-7.94l55.26-8a4.71,4.71,0,0,0,3.51-2.55Z"/><path class="cls-6" d="M200.92,380.5,295,286.38l-6.65-1a4.67,4.67,0,0,1-3.51-2.55l-24.67-50a4.64,4.64,0,0,0-8.34,0l-24.71,50.06a4.65,4.65,0,0,1-3.51,2.55l-55.25,8a4.65,4.65,0,0,0-2.58,7.94l40,39a4.7,4.7,0,0,1,1.34,4.12Z"/></g></svg>