<svg id="Layer_1" data-name="Layer 1" xmlns="http://www.w3.org/2000/svg" viewBox="0 0 512 512"><defs><style>.cls-1{fill:#00b0ff;}.cls-2{fill:#1a3b7e;}.cls-3{fill:#2962ff;}.cls-4{fill:#2979ff;}.cls-5{fill:#448aff;}.cls-6{fill:#fff;}</style></defs><title>Prospective</title><g id="Layer_1-2" data-name="Layer 1-2"><circle class="cls-1" cx="256" cy="256" r="256"/><path class="cls-2" d="M389.58,355.15,349.8,295.87a8.31,8.31,0,0,0-3.66,2.72c-4.34,6.49,5.33,24.54-.17,30s-23.55-4.17-30,.17-4.37,24.7-11.62,27.71c-4.92,2-12.64-4.91-19.48-8.88l36,53.65a8.27,8.27,0,0,0,14.77-2.12l8.77-27.82a8.28,8.28,0,0,1,8.58-5.77L382,368a8.28,8.28,0,0,0,7.58-12.86Z"/><path class="cls-2" d="M206,356.51c-7.23-3-5.18-23.4-11.61-27.72s-24.54,5.34-30-.17,4.17-23.55-.17-30a8.25,8.25,0,0,0-3.47-2.62L121,355.19A8.28,8.28,0,0,0,128.5,368l29.06-2.44a8.28,8.28,0,0,1,8.59,5.76l8.76,27.82a8.26,8.26,0,0,0,14.76,2.13l36.15-53.86C218.88,351.35,211,358.58,206,356.51Z"/><path class="cls-3" d="M383.6,237.79c0,7.94-19.63,13.86-21.11,21.37C361,266.9,376.8,279.85,373.85,287s-23.4,5.18-27.71,11.62,5.33,24.54-.17,30-23.55-4.17-30,.17-4.37,24.7-11.62,27.71-20.07-12.9-27.81-11.37c-7.5,1.49-13.42,21.12-21.37,21.12s-13.85-19.63-21.36-21.12c-7.74-1.53-20.7,14.32-27.82,11.37s-5.18-23.4-11.62-27.71-24.54,5.33-30-.18,4.17-23.55-.18-30-24.7-4.37-27.7-11.61,12.9-20.08,11.36-27.81c-1.48-7.51-21.11-13.43-21.11-21.37s19.63-13.86,21.12-21.37c1.52-7.73-14.32-20.69-11.37-27.81s23.4-5.18,27.71-11.62-5.34-24.54.17-30.05,23.56,4.18,30-.16S198.74,122.1,206,119.1s20,12.9,27.78,11.34c7.51-1.49,13.42-21.12,21.36-21.12S269,129,276.5,130.44c7.74,1.53,20.7-14.31,27.82-11.36s5.18,23.4,11.62,27.71,24.54-5.34,30,.16-4.17,23.56.16,30,24.71,4.38,27.71,11.62S361,208.69,362.49,216.42C364,223.93,383.6,229.85,383.6,237.79Z"/><path class="cls-4" d="M346,147c-5.5-5.5-23.56,4.17-30-.17s-4.38-24.71-11.62-27.7S284.24,132,276.5,130.44c-7.5-1.49-13.42-21.12-21.37-21.12S241.28,129,233.77,130.44C226,132,213.08,116.12,206,119.07s-5.18,23.4-11.62,27.71-24.54-5.33-30,.16,4.17,23.57-.17,30.05-24.71,4.37-27.71,11.62,12.9,20.07,11.37,27.81c-1.49,7.51-21.12,13.43-21.12,21.37s19.63,13.86,21.11,21.37c1.53,7.73-14.31,20.69-11.36,27.81s23.39,5.18,27.7,11.61-5.33,24.55.17,30a6,6,0,0,0,.57.42L346.39,147.52A5,5,0,0,0,346,147Z"/><circle class="cls-4" cx="255.14" cy="237.8" r="86.81"/><path class="cls-5" d="M255.13,151a86.8,86.8,0,0,0-61.58,148L316.29,176.2A86.48,86.48,0,0,0,255.13,151Z"/><circle class="cls-6" cx="255.14" cy="237.8" r="56.63"/></g></svg>