<svg id="Layer_1" data-name="Layer 1" xmlns="http://www.w3.org/2000/svg" viewBox="0 0 512 512"><defs><style>.cls-1{fill:#00b0ff;}.cls-2{fill:#e8eaf6;}.cls-3{fill:#1a3b7e;}.cls-4{fill:#0d57a1;}.cls-5{fill:#fff;}</style></defs><title>Ready to Offer</title><g id="Layer_1-2" data-name="Layer 1-2"><circle class="cls-1" cx="256" cy="256" r="256"/><path class="cls-2" d="M404.88,141a14,14,0,0,0-12.61-15.27c-.42,0-.84-.06-1.27-.06H349.09V107.05H162.91v18.62H121a14,14,0,0,0-13.94,14.06c0,.42,0,.85.06,1.27,7,73,53.51,93.23,124.4,112,16.26,33.06,2.15,70.81-24.11,76.74a9.28,9.28,0,0,0-7.26,9.07v10.35h111.7V338.74a9.29,9.29,0,0,0-7.26-9.07c-26.27-5.93-40.38-43.69-24.12-76.74C351.36,234.21,397.83,213.93,404.88,141Zm-55.79,22.86V153.6H374a111.25,111.25,0,0,1-8.24,21.52c-6.67,12.9-15,22.08-25.3,27.69a91.88,91.88,0,0,0,8.63-39ZM146.27,175.12A111.35,111.35,0,0,1,138,153.6h24.88v10.24a91.89,91.89,0,0,0,8.66,39C161.32,197.2,152.94,188,146.27,175.12Z"/><path class="cls-3" d="M349.09,395.64a9.33,9.33,0,0,1-9.31,9.31H172.22a9.33,9.33,0,0,1-9.31-9.31V358.4a9.31,9.31,0,0,1,9.31-9.31H339.78a9.31,9.31,0,0,1,9.31,9.31Z"/><rect class="cls-2" x="214.11" y="367.71" width="83.78" height="18.62"/><path class="cls-4" d="M214.11,386.33V367.71H256V349.09H172.22a9.31,9.31,0,0,0-9.31,9.31v37.24a9.33,9.33,0,0,0,9.31,9.31H256V386.33Z"/><path class="cls-5" d="M231.52,252.93c16.26,33.06,2.15,70.81-24.11,76.74a9.28,9.28,0,0,0-7.26,9.07v10.35H256v-242H162.91v18.62H121a14,14,0,0,0-13.94,14.06q0,.61.06,1.23C114.17,213.93,160.64,234.21,231.52,252.93Zm-60-50.12c-10.25-5.61-18.63-14.8-25.3-27.69A110.54,110.54,0,0,1,138,153.6h24.88v10.24a91.79,91.79,0,0,0,8.69,39Z"/><path class="cls-5" d="M372,293.75a.45.45,0,0,0,.4-.45v-.12a.46.46,0,0,0-.4-.46q-19.42-2.93-22.35-22.36a.46.46,0,0,0-.46-.4H349a.47.47,0,0,0-.47.4q-2.91,19.44-22.36,22.36a.45.45,0,0,0-.39.46v.11a.46.46,0,0,0,.4.46q19.44,2.92,22.35,22.36a.47.47,0,0,0,.47.4h.16a.44.44,0,0,0,.41-.35Q352.5,296.68,372,293.75Z"/><path class="cls-5" d="M185.54,280.11a.74.74,0,0,0,.64-.74v-.19a.73.73,0,0,0-.64-.73q-31.09-4.68-35.77-35.78A.73.73,0,0,0,149,242h-.19a.73.73,0,0,0-.73.63q-4.68,31.11-35.77,35.78a.73.73,0,0,0-.64.73v.19a.73.73,0,0,0,.64.73q31.09,4.67,35.77,35.78a.73.73,0,0,0,.73.63h.27a.65.65,0,0,0,.64-.55Q154.42,284.78,185.54,280.11Z"/></g></svg>