<svg id="Layer_1" data-name="Layer 1" xmlns="http://www.w3.org/2000/svg" viewBox="0 0 512 512"><defs><style>.cls-1{fill:#00b0ff;}.cls-2{fill:#e8eaf6;}.cls-3{fill:#1a3b7e;}.cls-4{fill:#0d57a1;}.cls-5{fill:#2979ff;}.cls-6{fill:#c5cae9;}.cls-7{fill:#fff;}.cls-8{fill:#448aff;}</style></defs><title>Airport</title><g id="Layer_1-2" data-name="Layer 1-2"><circle class="cls-1" cx="256" cy="256" r="256"/><path class="cls-2" d="M386.33,181.53H125.67a18.62,18.62,0,0,0-18.62,18.62V256a18.62,18.62,0,0,0,18.62,18.62H386.33A18.62,18.62,0,0,0,405,256.05v-55.9a18.62,18.62,0,0,0-18.62-18.62Z"/><path class="cls-3" d="M349.09,347.74a37.46,37.46,0,0,0-18.62-11.45,38.92,38.92,0,0,0-9.31-1.16H190.84a38.92,38.92,0,0,0-9.31,1.16,37.31,37.31,0,0,0-27.93,36.07,13.81,13.81,0,0,0,9.31,13.13,13.19,13.19,0,0,0,4.65.84H344.44a13.19,13.19,0,0,0,4.65-.84,13.81,13.81,0,0,0,9.31-13.13A37.2,37.2,0,0,0,349.09,347.74Z"/><path class="cls-4" d="M330.47,336.29v50h14a13.19,13.19,0,0,0,4.65-.84V347.74A37.48,37.48,0,0,0,330.47,336.29Z"/><rect class="cls-4" x="293.24" y="335.13" width="18.62" height="51.2"/><path class="cls-4" d="M162.91,347.74v37.75a13.19,13.19,0,0,0,4.65.84h14v-50A37.52,37.52,0,0,0,162.91,347.74Z"/><rect class="cls-4" x="200.15" y="335.13" width="18.62" height="51.2"/><rect class="cls-5" x="172.22" y="181.53" width="18.62" height="93.09"/><rect class="cls-5" x="134.98" y="181.53" width="18.62" height="93.09"/><rect class="cls-5" x="321.16" y="181.53" width="18.62" height="93.09"/><rect class="cls-5" x="358.4" y="181.53" width="18.62" height="93.09"/><path class="cls-2" d="M244.22,405a9.32,9.32,0,0,1-8.89-6.58c-36.46-118.35-31.39-189.87-14-247.46a9.32,9.32,0,0,1,8.91-6.62h51.4a9.3,9.3,0,0,1,8.93,6.72c16.92,58.26,24.13,130.25-13.85,247.49a9.31,9.31,0,0,1-8.86,6.45Z"/><path class="cls-3" d="M349.09,125.67a9.31,9.31,0,0,1-9.31,9.31c-5.14,0-79.13-9.31-79.13-9.31s74-9.31,79.13-9.31A9.31,9.31,0,0,1,349.09,125.67Z"/><path class="cls-4" d="M162.91,125.67a9.31,9.31,0,0,0,9.31,9.31c5.14,0,79.13-9.31,79.13-9.31s-74-9.31-79.13-9.31A9.31,9.31,0,0,0,162.91,125.67Z"/><path class="cls-6" d="M230.26,144.29S242,107.05,256,107.05s25.66,37.24,25.66,37.24Z"/><path class="cls-2" d="M256,107.05c-14,0-25.74,37.24-25.74,37.24H256Z"/><path class="cls-7" d="M256,144.29H230.26a9.32,9.32,0,0,0-8.91,6.62c-17.41,57.59-22.48,129.11,14,247.46a9.3,9.3,0,0,0,8.89,6.58H256Z"/><ellipse class="cls-5" cx="255.42" cy="255.29" rx="32.58" ry="55.13"/><path class="cls-8" d="M256,200.2h-.58c-18,0-32.58,24.68-32.58,55.14s14.58,55.14,32.58,55.14c.19,0,.38-.05.58-.06Z"/></g></svg>