<svg id="Layer_1" data-name="Layer 1" xmlns="http://www.w3.org/2000/svg" viewBox="0 0 512 512"><defs><style>.cls-1{fill:#00b0ff;}.cls-2{fill:#fff;}.cls-3{fill:#2962ff;}.cls-4{fill:#2979ff;}.cls-5{fill:#0d57a1;}</style></defs><title>Electricity</title><g id="Layer_1-2" data-name="Layer 1-2"><path class="cls-1" d="M512,256c0,141.38-114.62,256-256,256S0,397.38,0,256,114.61,0,256,0,512,114.61,512,256Z"/><path class="cls-2" d="M404.94,208.65l-84.91.52-138.5,84.07c-.28-.29-74.28-.19-74.47,0v111.7H404.94Z"/><rect class="cls-1" x="265.31" y="330.47" width="111.71" height="32.58"/><rect class="cls-1" x="134.98" y="330.47" width="111.71" height="32.58"/><path class="cls-2" d="M330.9,104.79a58.41,58.41,0,0,1-54.25,36.81c-40.33,0-36.68-31.16-77.9-31.16a58.39,58.39,0,0,0-54.95,38.74,58.18,58.18,0,0,1,43.26-19.27c45.61,0,39.13,39,85.7,39a58.41,58.41,0,0,0,58.41-58.41,56.29,56.29,0,0,0-.27-5.66Z"/><path class="cls-3" d="M381,252.15a1.31,1.31,0,0,0-1.14-.66H362.7l2.88-22a1.32,1.32,0,0,0-1.17-1.45,1.3,1.3,0,0,0-1.25.59l-20.9,36.62a1.31,1.31,0,0,0,.42,1.8h0a1.25,1.25,0,0,0,.68.19h16.94l-2.31,22a1.31,1.31,0,0,0,1.22,1.41,1.29,1.29,0,0,0,1.21-.61L381,253.47A1.3,1.3,0,0,0,381,252.15Z"/><polygon class="cls-3" points="181.2 293 220.2 293 356.73 208.95 320.2 209 181.2 293"/><rect class="cls-2" x="107.2" y="182" width="74" height="111"/><path class="cls-3" d="M107.2,182v18.15h74V182Z"/><path class="cls-3" d="M107.2,218.76v18.62h74V218.76Z"/><path class="cls-3" d="M107.2,256v18.62h74V256Z"/><path class="cls-4" d="M107.2,182v18.15h37.09V182Z"/><path class="cls-4" d="M107.2,218.76v18.62h37.09V218.76Z"/><path class="cls-4" d="M107.2,256v18.62h37.09V256Z"/><rect class="cls-5" x="107.06" y="386" width="298" height="19"/></g></svg>