<svg id="Layer_1" data-name="Layer 1" xmlns="http://www.w3.org/2000/svg" viewBox="0 0 512 512"><defs><style>.cls-1{fill:#00b0ff;}.cls-2{fill:#2962ff;}.cls-3{fill:#fff;}.cls-4{fill:#2979ff;}.cls-5{fill:#0d57a1;}</style></defs><title>Industrial Estate</title><g id="Layer_1-2" data-name="Layer 1-2"><path class="cls-1" d="M512,256c0,141.38-114.62,256-256,256S0,397.38,0,256,114.61,0,256,0,512,114.61,512,256Z"/><path class="cls-2" d="M181.16,293.24h26.91l85.17-85.76V181.16Z"/><path class="cls-3" d="M404.94,208.65l-85.38,84.59H293.24V207.48l-85.39,85.76H181.53c-2-14.12-16.6-116.21-18.62-130.33H125.67c-2,14.12-16.59,116.21-18.61,130.33v111.7H404.94"/><path class="cls-2" d="M293.24,293.24h26.32l85.38-84.59V181.53Z"/><path class="cls-2" d="M120.35,200.15h47.88l-2.66-18.62H123Z"/><path class="cls-2" d="M115,237.38h58.5l-2.65-18.62h-53.2Z"/><path class="cls-2" d="M109.71,274.62h69.16L176.21,256H112.37Z"/><path class="cls-4" d="M144.29,181.53H123l-2.66,18.62h23.94Z"/><path class="cls-4" d="M144.29,218.76h-26.6L115,237.38h29.25Z"/><path class="cls-4" d="M144.29,256H112.37l-2.66,18.62h34.58Z"/><path class="cls-3" d="M109.71,274.62l-2.65,18.62h37.23V274.62Z"/><rect class="cls-1" x="265.31" y="330.47" width="111.71" height="32.58"/><rect class="cls-1" x="134.98" y="330.47" width="111.71" height="32.58"/><path class="cls-3" d="M330.9,104.79a58.41,58.41,0,0,1-54.25,36.81c-40.33,0-36.68-31.16-77.9-31.16a58.39,58.39,0,0,0-54.95,38.74,58.18,58.18,0,0,1,43.26-19.27c45.61,0,39.13,39,85.7,39a58.41,58.41,0,0,0,58.41-58.41,56.29,56.29,0,0,0-.27-5.66Z"/><rect class="cls-5" x="106.94" y="386" width="298" height="19"/></g></svg>