<svg id="Layer_1" data-name="Layer 1" xmlns="http://www.w3.org/2000/svg" viewBox="0 0 512 512"><defs><style>.cls-1{fill:#00b0ff;}.cls-2{fill:#fff;}.cls-3{fill:#c5cae9;}.cls-4{fill:#e8eaf6;}.cls-5{fill:#1a3b7e;}.cls-6{fill:#0d57a1;}.cls-7{fill:#2979ff;}.cls-8{fill:#448aff;}.cls-9{fill:#1565c0;}</style></defs><title>Railway</title><g id="Layer_1-2" data-name="Layer 1-2"><circle class="cls-1" cx="256" cy="256" r="256"/><polygon class="cls-2" points="377.02 404.94 404.94 404.94 349.09 311.86 321.16 311.86 351.88 363.06 160.12 363.06 190.84 311.86 162.91 311.86 107.06 404.94 134.98 404.94 148.94 381.67 363.06 381.67 377.02 404.94"/><path class="cls-3" d="M257.12,107.05h-2.24a110.6,110.6,0,0,0-110.59,110.6c0,117.48,51.2,154.71,111.71,154.71s111.71-37.23,111.71-154.71A110.6,110.6,0,0,0,257.12,107.05Z"/><path class="cls-3" d="M256,107.05h-1.12a110.6,110.6,0,0,0-110.59,110.6c0,117.48,51.2,154.71,111.71,154.71Z"/><path class="cls-4" d="M256,107.05c-50.94,0-91.26,32.46-105.7,75.16,0,59.36,46.84,142.61,105.7,139,58.86,3.66,105.68-79.59,105.7-139C347.27,139.54,307,107.05,256,107.05Z"/><path class="cls-2" d="M256,107.05h-.94A110.62,110.62,0,0,0,150.3,182.21c0,59.36,46.84,142.61,105.7,139Z"/><ellipse class="cls-5" cx="256" cy="325.82" rx="65.16" ry="51.2"/><path class="cls-6" d="M256,274.5v46.55c20.27,1.26,39.1-7.79,55.09-22.6C299.55,284.07,279.22,274.5,256,274.5Z"/><path class="cls-7" d="M324.65,173.8a28,28,0,0,0-22.13-10.89h-93a27.95,27.95,0,0,0-27,35.06,182.88,182.88,0,0,0,7.3,22,28,28,0,0,0,25.89,17.43h80.7A28,28,0,0,0,322.24,220a181.13,181.13,0,0,0,7.3-22A28,28,0,0,0,324.65,173.8Z"/><path class="cls-8" d="M209.48,162.91a27.95,27.95,0,0,0-27,35.06,182.88,182.88,0,0,0,7.3,22,28,28,0,0,0,25.89,17.43H256V162.91Z"/><path class="cls-9" d="M256,321.16V274.62c-23.22,0-43.55,9.57-55.09,23.94C216.9,313.38,235.73,322.43,256,321.16Z"/></g></svg>