<svg id="Layer_1" data-name="Layer 1" xmlns="http://www.w3.org/2000/svg" viewBox="0 0 512 512"><defs><style>.cls-1{fill:#00b0ff;}.cls-2{fill:#c5cae9;}.cls-3{fill:#1a3b7e;}.cls-4{fill:#0d57a1;}.cls-5{fill:#2962ff;}.cls-6{fill:#fff;}.cls-7{fill:#2979ff;}.cls-8{fill:#448aff;}.cls-9{fill:#e8eaf6;}</style></defs><title>Seaport</title><g id="Layer_1-2" data-name="Layer 1-2"><circle class="cls-1" cx="256" cy="256" r="256"/><path class="cls-2" d="M340.32,242.51l-10-53.39a9.3,9.3,0,0,0-9.15-7.59H190.84a9.3,9.3,0,0,0-9.15,7.59l-10,53.39c-24.2,7.32-45.52,13.49-45.52,13.49A274.44,274.44,0,0,0,135,293.31c12.84,42,51.75,80.49,65.17,111.64h111.7c13.4-31.15,52.31-69.65,65.13-111.64A276,276,0,0,0,385.84,256S364.52,249.83,340.32,242.51Z"/><path class="cls-2" d="M283.93,162.91V116.36a9.33,9.33,0,0,0-9.31-9.31H237.38a9.33,9.33,0,0,0-9.31,9.31v46.55a9.31,9.31,0,0,0-9.31,9.31v9.31h74.48v-9.31a9.31,9.31,0,0,0-9.31-9.31Z"/><path class="cls-3" d="M256,261.79c-19.15.9-90.5,19.12-121,31.52,12.84,42,51.75,80.49,65.17,111.64h111.7c13.4-31.15,52.31-69.65,65.13-111.64C346.5,280.91,275.15,262.69,256,261.79Z"/><path class="cls-4" d="M256,261.79V405H200.15c-13.42-31.2-52.33-69.7-65.15-111.69C165.5,280.91,236.85,262.69,256,261.79Z"/><path class="cls-5" d="M217.49,228.16c16-5.16,30.16-8.9,38.51-9.31,8.36.41,22.51,4.15,38.51,9.31,13.11,4.35,30.07,9.59,45.81,14.35l-10-53.39a9.3,9.3,0,0,0-9.15-7.59H190.84a9.3,9.3,0,0,0-9.15,7.59l-10,53.39C187.42,237.75,204.38,232.51,217.49,228.16Z"/><path class="cls-6" d="M256,162.91H228.07a9.31,9.31,0,0,0-9.31,9.31v9.31H256Z"/><path class="cls-6" d="M256,107.05H237.38a9.33,9.33,0,0,0-9.31,9.31V121H256Z"/><rect class="cls-6" x="228.07" y="134.98" width="27.93" height="13.96"/><polygon class="cls-7" points="256 121.02 228.07 121.02 228.07 134.98 256 134.98 283.93 134.98 283.93 121.02 256 121.02"/><rect class="cls-8" x="228.07" y="121.02" width="27.93" height="13.96"/><polygon class="cls-7" points="256 148.94 228.07 148.94 228.07 162.91 256 162.91 283.93 162.91 283.93 148.94 256 148.94"/><rect class="cls-8" x="228.07" y="148.95" width="27.93" height="13.96"/><path class="cls-9" d="M363.05,367.71c-15.24,0-24.09,7.37-32.58,18.71a46.41,46.41,0,0,0-74.47,0,46.41,46.41,0,0,0-74.47,0C173,375.08,164.19,367.71,149,367.71c-22.52,0-37.58,16-41.9,37.24H405C400.63,383.7,385.57,367.71,363.05,367.71Z"/><path class="cls-7" d="M217.49,228.16c16-5.16,30.16-8.9,38.51-9.31V181.53H190.84a9.3,9.3,0,0,0-9.15,7.59l-10,53.39C187.42,237.75,204.38,232.51,217.49,228.16Z"/><rect class="cls-2" x="209.45" y="195.49" width="18.62" height="18.62"/><rect class="cls-2" x="246.69" y="195.49" width="18.62" height="18.62"/><rect class="cls-2" x="283.93" y="195.49" width="18.62" height="18.62"/><path class="cls-6" d="M217.49,228.16c16-5.16,30.16-8.9,38.51-9.31v42.94c-19.15.91-90.5,19.13-121,31.53A276.11,276.11,0,0,1,126.16,256S184.23,239.19,217.49,228.16Z"/></g></svg>