<svg id="Layer_1" data-name="Layer 1" xmlns="http://www.w3.org/2000/svg" viewBox="0 0 512 512"><defs><style>.cls-1{fill:#00b0ff;}.cls-2{fill:#1a3b7e;}.cls-3{fill:#e8eaf6;}.cls-4{fill:#fff;}.cls-5{fill:#c5cae9;}.cls-6{fill:#2962ff;}.cls-7{fill:#2979ff;}</style></defs><title>Tollroad</title><g id="Layer_1-2" data-name="Layer 1-2"><circle class="cls-1" cx="256" cy="256" r="256"/><rect class="cls-2" x="219.46" y="80.85" width="55.85" height="242.02" transform="translate(-58.9 292.04) rotate(-55.62)"/><polygon class="cls-3" points="203.47 137.97 135.8 150.66 150.67 128.92 181.73 123.09 203.47 137.97"/><polygon class="cls-3" points="251 170.48 173.36 185.04 151.61 170.17 229.25 155.61 251 170.48"/><polygon class="cls-3" points="298.51 202.99 220.88 217.55 199.17 202.7 276.77 188.11 298.51 202.99"/><polygon class="cls-3" points="343.85 234 266.21 248.56 244.46 233.68 322.1 219.12 343.85 234"/><polygon class="cls-3" points="357.04 255.94 342.17 277.68 315.96 282.6 294.22 267.72 357.04 255.94"/><path class="cls-4" d="M311.85,274.62a37.24,37.24,0,0,1,37.24-37.24h18.62A37.24,37.24,0,0,1,405,274.57V405H311.9Z"/><rect class="cls-5" x="330.47" y="274.62" width="55.85" height="37.24"/><path class="cls-6" d="M271.56,334.48A22.21,22.21,0,0,0,249.64,316L242,268.09A14.79,14.79,0,0,0,227.46,256H163.08a14.8,14.8,0,0,0-14.57,12.09c-.45,2.4-9.8,46.09-10.13,47.86a22.26,22.26,0,0,0-22.25,22.24v18.54H271.89C271.89,339.42,272.1,337.4,271.56,334.48ZM153.21,316c1.34-8,1.52-2.06,6.61-32.73a14.82,14.82,0,0,1,14.65-12.39h41.6a14.82,14.82,0,0,1,14.65,12.39L234.79,316Z"/><path class="cls-2" d="M234.8,379v18.54a7.42,7.42,0,0,0,7.42,7.42h14.83a7.42,7.42,0,0,0,7.42-7.42h0V379Z"/><path class="cls-2" d="M123.55,379v18.54a7.42,7.42,0,0,0,7.38,7.46H145.8a7.42,7.42,0,0,0,7.42-7.42h0V379Z"/><path class="cls-3" d="M279.3,364.15a7.43,7.43,0,0,0-7.41-7.42H116.13a7.42,7.42,0,0,0-7.42,7.42h0v7.42a7.42,7.42,0,0,0,7.42,7.42H271.89a7.43,7.43,0,0,0,7.41-7.42Z"/><circle class="cls-5" cx="249.63" cy="341.88" r="11.12"/><path class="cls-4" d="M271.89,356.74H116.13a7.42,7.42,0,0,0-7.42,7.42h0v3.71H279.3v-3.71a7.41,7.41,0,0,0-7.4-7.42Z"/><path class="cls-3" d="M249.64,330.78A11.11,11.11,0,0,0,242,350l15.7-15.7A11.1,11.1,0,0,0,249.64,330.78Z"/><path class="cls-7" d="M148.51,268.09c-.45,2.4-9.8,46.09-10.13,47.86a22.26,22.26,0,0,0-22.25,22.24v18.54H124l40.8-40.79H153.22c1.34-8,1.52-2.06,6.6-32.72a14.82,14.82,0,0,1,14.65-12.39h36.06L225.36,256H163.08A14.8,14.8,0,0,0,148.51,268.09Z"/><circle class="cls-5" cx="138.38" cy="341.88" r="11.13"/><path class="cls-3" d="M138.38,330.78A11.1,11.1,0,0,0,130.74,350l15.69-15.7A11.08,11.08,0,0,0,138.38,330.78Z"/><path class="cls-5" d="M216.08,270.83H174.47a14.82,14.82,0,0,0-14.65,12.39c-5.09,30.71-5.27,24.76-6.6,32.73H234.8l-4.07-32.73A14.86,14.86,0,0,0,216.08,270.83Z"/><path class="cls-5" d="M153.21,316c1.34-8,1.52-2.06,6.61-32.73a14.82,14.82,0,0,1,14.65-12.39h41.6a14.82,14.82,0,0,1,14.65,12.39L234.79,316Z"/><path class="cls-3" d="M159.82,283.22c-4.8,28.95-5.46,25.89-6.61,32.73h11.55l45.77-45.12H174.47A14.82,14.82,0,0,0,159.82,283.22Z"/></g></svg>